<svg width="20" height="24" viewBox="0 0 20 24" fill="none" xmlns="http://www.w3.org/2000/svg">
<path d="M14.3336 1.00026C15.3798 1.4336 16.3304 2.06876 17.1311 2.86947C17.9318 3.67018 18.5669 4.62076 19.0003 5.66693" stroke="#2B0063" stroke-width="2" stroke-linecap="round"/>
<g filter="url(#filter0_d_13_170)">
<path d="M9.66693 14.6669C8.62076 14.2336 7.67018 13.5984 6.86947 12.7977C6.06876 11.997 5.4336 11.0464 5.00026 10.0002" stroke="#2B0063" stroke-opacity="0.3" stroke-width="2" stroke-linecap="round" shape-rendering="crispEdges"/>
</g>
<path d="M5.00026 5.66693C5.4336 4.62076 6.06876 3.67018 6.86947 2.86947C7.67018 2.06876 8.62076 1.4336 9.66693 1.00026" stroke="#2B0063" stroke-width="2" stroke-linecap="round"/>
<path d="M19.0003 10.3336C18.5669 11.3797 17.9318 12.3303 17.1311 13.131C16.3304 13.9317 15.3798 14.5669 14.3336 15.0002" stroke="#2B0063" stroke-width="2" stroke-linecap="round"/>
<defs>
<filter id="filter0_d_13_170" x="0" y="8.99997" width="14.6672" height="14.6672" filterUnits="userSpaceOnUse" color-interpolation-filters="sRGB">
<feFlood flood-opacity="0" result="BackgroundImageFix"/>
<feColorMatrix in="SourceAlpha" type="matrix" values="0 0 0 0 0 0 0 0 0 0 0 0 0 0 0 0 0 0 127 0" result="hardAlpha"/>
<feOffset dy="4"/>
<feGaussianBlur stdDeviation="2"/>
<feComposite in2="hardAlpha" operator="out"/>
<feColorMatrix type="matrix" values="0 0 0 0 0 0 0 0 0 0 0 0 0 0 0 0 0 0 0.25 0"/>
<feBlend mode="normal" in2="BackgroundImageFix" result="effect1_dropShadow_13_170"/>
<feBlend mode="normal" in="SourceGraphic" in2="effect1_dropShadow_13_170" result="shape"/>
</filter>
</defs>
</svg>
